<?xml version="1.0" encoding="UTF-8"?>
<!-- Generated by Pixelmator Pro 3.6.13 -->
<svg width="512" height="512" viewBox="0 0 512 512" xmlns="http://www.w3.org/2000/svg">
    <path id="Path" fill="none" stroke="#ffffff" stroke-width="32" d="M 183.279999 416 L 328.735992 416 C 376.928009 416 416 376.928009 416 328.720001 L 416 183.264008 C 416 135.072021 376.928009 96 328.720001 96 L 183.264008 96 C 135.072006 96 96 135.072021 96 183.279999 L 96 328.735992 C 96 376.928009 135.072006 416 183.279999 416 Z"/>
    <path id="path1" fill="none" stroke="#ffffff" stroke-width="32" d="M 336 256 C 336 300.18277 300.18277 336 256 336 C 211.817215 336 176 300.18277 176 256 C 176 211.8172 211.817215 176 256 176 C 300.18277 176 336 211.8172 336 256 Z"/>
    <path id="path2" fill="#ffffff" stroke="none" d="M 365.088013 161.455994 C 365.088013 169.488434 358.576416 176 350.544006 176 C 342.511566 176 336 169.488434 336 161.455994 C 336 153.423584 342.511566 146.911987 350.544006 146.911987 C 358.576416 146.911987 365.088013 153.423584 365.088013 161.455994 Z"/>
</svg>
