<?xml version="1.0" encoding="UTF-8"?>
<!-- Generated by Pixelmator Pro 3.6.13 -->
<svg width="480" height="480" viewBox="0 0 480 480" xmlns="http://www.w3.org/2000/svg">
    <path id="Path" fill="#ffffff" stroke="none" d="M 384 64 L 96 64 C 78.32 64 64 78.320007 64 96 L 64 384 C 64 401.679993 78.32 416 96 416 L 384 416 C 401.679993 416 416 401.679993 416 384 L 416 96 C 416 78.320007 401.679993 64 384 64 Z M 175.264008 352 L 128.063995 352 L 128.063995 200.127991 L 175.264008 200.127991 L 175.264008 352 Z M 151.184006 178.416016 C 135.968002 178.416016 123.664001 166.080017 123.664001 150.895996 C 123.664001 135.712006 135.983994 123.391998 151.184006 123.391998 C 166.352005 123.391998 178.688004 135.727997 178.688004 150.895996 C 178.688004 166.080017 166.352005 178.416016 151.184006 178.416016 Z M 352.063995 352 L 304.895996 352 L 304.895996 278.144012 C 304.895996 260.528015 304.575989 237.871994 280.368011 237.871994 C 255.807999 237.871994 252.031998 257.056 252.031998 276.864014 L 252.031998 352 L 204.863998 352 L 204.863998 200.127991 L 250.143997 200.127991 L 250.143997 220.880005 L 250.783997 220.880005 C 257.088013 208.944 272.480011 196.35199 295.440002 196.35199 C 343.231995 196.35199 352.063995 227.807999 352.063995 268.70401 L 352.063995 352 Z"/>
</svg>
